<?xml version="1.0" encoding="UTF-8"?>
<svg xmlns="http://www.w3.org/2000/svg" xmlns:xlink="http://www.w3.org/1999/xlink" width="100" height="100" viewBox="0 0 100 100">
  <defs>
    <clipPath clipPathUnits="userSpaceOnUse" id="clipPath55">
      <use x="0" y="0" xlink:href="#g54" id="use55" />
    </clipPath>
    <clipPath clipPathUnits="userSpaceOnUse" id="clipPath57">
      <path style="display:inline;fill:#ffffff;fill-opacity:1" d="m 17.710422,96.287336 -0.0039,-28.413531 H 82.294975 V 96.287336 H 62.825 V 85.733528 C 62.8325,80.378131 58.273859,73.875 49.988405,73.875 41.702951,73.875 37.176456,80.381784 37.175,85.732869 V 96.287 Z" id="path57" clip-path="url(#clipPath55)" />
      <path style="display:inline;fill:#ffffff;fill-opacity:1" d="M 13.9,64.199219 V 59.8 L 50.000437,45.894154 86.1,59.8 v 4.402646 z" id="path58" clip-path="url(#clipPath55)" />
      <path id="lpe_path-effect59" class="powerclip" d="M 4.8750623,36.9 H 95.125 V 105 H 4.8750623 Z M 17.710422,96.287336 37.175,96.287 V 85.732869 C 37.176456,80.381784 41.702951,73.875 49.988405,73.875 58.273859,73.875 62.8325,80.378131 62.825,85.733528 V 96.287336 H 82.294975 V 67.873805 H 17.706522 Z M 13.9,64.199219 l 72.2,0.0034 V 59.8 L 50.000437,45.894154 13.9,59.8 Z" />
    </clipPath>
    <clipPath clipPathUnits="userSpaceOnUse" id="clipPath62">
      <path style="display:none;fill:#ffffff" d="M 35.805,24.301302 64.195,24.3 C 64.195,24.3 62.278772,11.709237 50,11.678911 37.721228,11.648585 35.805,24.301302 35.805,24.301302 Z" id="path62" />
      <path id="lpe_path-effect62" style="display:inline;fill:#ffffff" class="powerclip" d="M 25.128868,-5 H 74.896564 V 50.125006 H 25.128868 Z M 35.805,24.301302 64.195,24.3 C 64.195,24.3 62.278772,11.709237 50,11.678911 37.721228,11.648585 35.805,24.301302 35.805,24.301302 Z" />
    </clipPath>
  </defs>
  <g id="layer4" style="display:inline">
    <path style="display:inline;fill:#000000" d="m 15.041325,100 -1.166062,-1.686807 0.0038,-30.435503 H 11.3 L 9.8750623,66.631404 V 57.376906 L 50,41.9 90.125,57.377 v 9.142132 L 88.7,67.87965 86.10229,67.877556 86.086633,98.250973 84.435137,100 H 60.5 L 59,97.814738 V 85.736697 C 59,80.375 54.401131,77.05625 50.016702,77.05625 45.632273,77.05625 41,80.375 41,85.736697 v 12.06291 L 39.499668,100 Z" id="path1" clip-path="url(#clipPath57)" />
    <path id="path2" style="display:inline;fill:#000000" d="m 50,0 c -1.094218,0 -1.75,0.72399458 -1.75,1.64 v 6.81 c -9.97,0.717129 -16.015625,9.4875 -16.015625,15.854688 -1.134373,0.05934 -2.112553,0.479615 -2.105469,1.734375 0.0078,1.380402 0.988513,1.759193 2.101563,1.759766 l 0.0059,17.326172 0.75,-1.195312 1.84961,-0.44336 0.96875,-0.988281 v -14.69922 h 4.453124 l 0.002,14.298828 0.748046,-1.203125 1.81836,-0.361328 L 43.81454,39.5625 V 27.802734 l 4.189453,-0.0039 V 39.560547 L 48.599609,38.320312 50,37.574219 l 1.400391,0.746093 0.595703,1.240235 V 27.798828 h 4.222656 l 0.0039,11.761719 0.988282,0.972656 1.818359,0.359375 0.744141,1.205078 V 27.800781 l 4.421874,-0.0039 v 14.701172 l 1,0.988281 1.84961,0.44336 0.75,1.195312 0.002,-17.324219 c 1.112213,-0.001 2.091808,-0.380203 2.099609,-1.759765 0.0071,-1.255207 -0.966673,-1.667451 -2.101562,-1.726563 C 67.793863,17.9375 61.72,9.148194 51.75,8.45 V 1.64 C 51.75,0.66340265 51.094218,0 50,0 Z" clip-path="url(#clipPath62)" />
  </g>
</svg>
