<?xml version="1.0" encoding="UTF-8"?>
<svg xmlns="http://www.w3.org/2000/svg" xmlns:xlink="http://www.w3.org/1999/xlink" width="100" height="100" viewBox="0 0 100 100">
  <defs>
    <linearGradient id="linearGradient38">
      <stop style="stop-color:#000000;stop-opacity:0.54913294;" offset="0" id="stop38" />
      <stop style="stop-color:#000000;stop-opacity:0;" offset="1" id="stop39" />
    </linearGradient>
    <linearGradient id="linearGradient35">
      <stop style="stop-color:#000000;stop-opacity:1;" offset="0" id="stop35" />
      <stop style="stop-color:#000000;stop-opacity:0;" offset="1" id="stop36" />
    </linearGradient>
    <linearGradient id="linearGradient33">
      <stop style="stop-color:#000000;stop-opacity:1;" offset="0" id="stop33" />
      <stop style="stop-color:#000000;stop-opacity:0.41618496;" offset="0.46133024" id="stop40" />
      <stop style="stop-color:#000000;stop-opacity:0.13;" offset="0.77181691" id="stop41" />
      <stop style="stop-color:#000000;stop-opacity:0;" offset="1" id="stop34" />
    </linearGradient>
    <clipPath clipPathUnits="userSpaceOnUse" id="clipPath16">
      <path id="rect16" d="M 3.0866637,-0.32356375 H 103.08212 V 99.680526 H 3.0866637 Z" style="display:inline;fill:#000000" />
    </clipPath>
    <clipPath clipPathUnits="userSpaceOnUse" id="clipPath17">
      <path id="rect17" d="M 0.00400221,0.00446462 H 99.999463 V 100.00855 H 0.00400221 Z" style="display:inline;fill:#000000" />
    </clipPath>
    <clipPath clipPathUnits="userSpaceOnUse" id="clipPath18">
      <path id="rect18" d="M 0.00400221,0.00446462 H 99.999463 V 100.00855 H 0.00400221 Z" style="display:inline;fill:#000000" />
    </clipPath>
    <clipPath clipPathUnits="userSpaceOnUse" id="clipPath19">
      <path id="rect19" d="M 0.00400221,0.00446462 H 99.999463 V 100.00855 H 0.00400221 Z" style="display:inline;fill:#000000" />
    </clipPath>
    <linearGradient xlink:href="#linearGradient35" id="linearGradient36" x1="96.374466" y1="62.053513" x2="20.221529" y2="98.850952" gradientUnits="userSpaceOnUse" />
    <linearGradient xlink:href="#linearGradient38" id="linearGradient39" x1="50.753624" y1="56.369118" x2="53.75" y2="93.487572" gradientUnits="userSpaceOnUse" />
    <radialGradient xlink:href="#linearGradient33" id="radialGradient40" cx="18.1483" cy="88.381172" fx="18.1483" fy="88.381172" r="15.676068" gradientTransform="matrix(-1.346248,-1.5218331,1.05212,-0.93072901,-50.020255,184.96039)" gradientUnits="userSpaceOnUse" />
  </defs>
  <g id="layer1" style="display:inline">
    <path id="path2" clip-path="url(#clipPath19)" style="fill:#000000" d="m 16.615234,69.423828 c -0.519826,-0.02712 -1.040412,-0.02042 -1.560546,0.02344 -2.748436,0.231744 -5.2985345,1.493055 -7.6855474,2.875 -3.6166717,2.093847 -7.062963,4.539069 -9.9335937,7.576172 -1.3031721,1.378744 -2.4827265,2.874108 -3.5195313,4.46289 1.154732,-0.752923 2.2975987,-1.523137 3.4277344,-2.3125 3.44407359,-2.405572 6.781241,-4.986342 10.453125,-7.027344 1.4924555,-0.829575 3.036311,-1.567565 4.625,-2.193359 -0.238934,0.502093 -0.343711,1.067198 -0.294922,1.621094 0.07272,0.825555 0.475862,1.587177 0.943359,2.271484 1.294159,1.894345 3.125382,3.369044 5.097657,4.541016 1.263734,0.75094 2.592074,1.387402 3.941406,1.970703 1.706603,0.737744 3.449384,1.391435 5.185547,2.05664 1.080529,0.414002 2.1675,0.835298 3.287109,1.115235 -3.401157,1.022316 -6.793562,2.07064 -10.136719,3.267578 -3.182406,1.139385 -6.31539,2.413253 -9.390624,3.816406 1.578109,-0.352285 3.151766,-0.72032 4.722656,-1.103515 3.439996,-0.839137 6.861142,-1.752159 10.285156,-2.654297 4.295038,-1.131631 8.5956,-2.245985 12.859375,-3.490235 4.747823,-1.385503 9.450744,-2.933059 14.074219,-4.689453 5.43521,-2.06476 10.756111,-4.417445 16.15625,-6.572265 0.978868,-0.390599 1.965824,-0.775704 2.966797,-1.113282 1.799424,-0.293244 3.704055,0.07013 5.257812,1.027344 1.089967,0.802056 1.868861,2.016505 2.142578,3.341797 0.274333,1.328273 0.04234,2.746637 -0.599609,3.941406 -0.888814,1.654234 -2.469602,2.808652 -4.027344,3.857422 -3.017839,2.031799 -6.15281,3.895912 -9.425781,5.484375 -6.615088,3.210485 -13.717559,5.263394 -20.736328,7.455078 -4.130097,1.289662 -8.244171,2.632212 -12.339844,4.027342 2.352666,0.30923 4.740918,0.35371 7.103516,0.13281 5.546114,-0.51855 10.84387,-2.47928 16.033203,-4.503902 4.798413,-1.872108 9.572165,-3.8169 14.220703,-6.035156 2.457296,-1.172608 4.886819,-2.425793 7.115234,-3.990234 1.331367,-0.934676 2.593918,-1.983764 3.650391,-3.220704 1.056473,-1.236939 1.904015,-2.669338 2.347656,-4.234374 0.266734,-0.940959 0.386104,-1.92857 0.294922,-2.902344 C 83.06507,77.272322 82.75991,76.312 82.226562,75.49219 81.67794,74.648901 80.906871,73.975394 80.119141,73.349611 c -0.241883,-0.192154 -0.48687,-0.380501 -0.738282,-0.5625 0.533104,0.03043 1.065075,0.07767 1.595703,0.134766 8.535725,0.91842 16.842677,4.345864 23.289058,10.015625 2.01664,1.773681 3.84875,3.757351 5.45704,5.908203 -2.19798,-4.34774 -5.49638,-8.133296 -9.50196,-10.90625 -1.902352,-1.316948 -3.952627,-2.405083 -6.046872,-3.388672 -3.797042,-1.783329 -7.776368,-3.240912 -11.912109,-3.943359 -2.544875,-0.432242 -5.149396,-0.5748 -7.710938,-0.25586 -5.152791,0.641579 -9.870652,3.100165 -14.568359,5.3125 -4.070821,1.917111 -8.21695,3.677249 -12.429688,5.257813 -0.635363,-0.195343 -1.27092,-0.387185 -1.908203,-0.576172 -1.230767,-0.364985 -2.464976,-0.7195 -3.695312,-1.085937 -2.175367,-0.6479 -4.339848,-1.337188 -6.470703,-2.119141 C 32.935765,76.20752 30.43974,75.142869 28.039062,73.888672 25.770874,72.703692 23.580966,71.345089 21.1875,70.439453 19.722896,69.885278 18.174712,69.505199 16.615234,69.423828 Z m 0.605469,2.34961 c 1.238228,0.03032 2.471165,0.310502 3.634766,0.74414 1.690028,0.629821 3.240887,1.573812 4.839843,2.408203 1.574928,0.821853 3.202498,1.539584 4.853516,2.195313 2.845844,1.130273 5.762796,2.075946 8.712891,2.896484 1.958395,0.544708 3.932002,1.035215 5.917969,1.46875 l 0.537109,0.111328 c -1.124338,0.406007 -2.253233,0.797853 -3.386719,1.177735 -2.909746,0.975186 -5.848339,1.864397 -8.789062,2.74414 -0.850337,-0.35048 -2.102066,-0.781021 -2.960248,-1.111825 -2.985394,-1.150784 -5.634904,-2.099811 -8.428424,-3.659659 -1.254446,-0.700458 -2.625339,-1.370277 -3.795918,-2.203356 -1.025938,-0.73014 -1.870231,-1.629277 -2.651348,-2.616957 -0.290559,-0.367395 -0.549115,-0.767884 -0.695312,-1.21289 -0.146197,-0.445006 -0.173543,-0.939342 -0.01172,-1.378906 0.126717,-0.344204 0.363525,-0.640867 0.642578,-0.878907 0.443092,-0.37797 1.001842,-0.616856 1.580078,-0.683593 z" />
    <path style="fill:url(#radialGradient40)" d="m 0,79.25 11.625,-7.5625 2.022183,0.691331 1.093008,4.204714 16.302586,9.855297 L 0.00400232,97.478656 V 85.3125 Z" id="path32" />
    <path style="fill:url(#linearGradient36)" d="M 13.722715,92.612798 41.4375,84.125 64.1875,75.4375 72.462626,71.931619 78.375,73.8125 81.5,79.25 78.875,84.75 64.3125,94 47.75,98.875 l -6,1.13355 L 0,100 0.00400232,85.3125 9.29872,94.228656 Z" id="path34" />
    <path style="display:inline;fill:url(#linearGradient39);fill-opacity:0" d="M 13.722715,92.6128 41.4375,84.125 64.1875,75.437501 72.46263,71.93162 78.375,73.812501 81.5,79.250001 78.875,84.75 64.3125,94 47.75,98.875 l -6,1.13355 c 0,0 -35.3599411,-3.227411 -32.451282,-5.78034 z" id="path34-4" />
  </g>
</svg>
