<?xml version="1.0" encoding="UTF-8"?>
<svg xmlns="http://www.w3.org/2000/svg" width="100" height="100" viewBox="0 0 100 100">
  <path d="M 60.25,63.65625 V 58.3125 c 0,0 6.123104,-8.051869 7.399933,-12.81706 0.905319,-3.378697 0.905319,-7.114957 0,-10.493654 -0.44739,-1.669684 -1.533704,-3.12492 -2.592876,-4.490994 -1.539486,-1.985562 -3.382093,-3.756462 -5.383024,-5.275919 -0.870039,-0.660686 -1.828997,-1.220626 -2.8383,-1.638693 -1.632038,-0.676012 -3.367546,-1.14104 -5.118938,-1.371615 -1.208119,-0.159052 -2.447512,-0.159052 -3.655631,0 -1.509626,0.198746 -3.00556,0.59958 -4.412307,1.182274 -1.133594,0.46955 -2.214382,1.093543 -3.187821,1.840489 -2.020943,1.550724 -3.853005,3.382786 -5.403729,5.403729 -1.0047,1.30935 -2.048444,2.6937 -2.475599,4.287864 -0.948543,3.540013 -0.947479,7.454375 0,10.994673 C 33.813077,50.53466 39.71875,58.125 39.71875,58.125 v 5.5 c 6.840375,0.07222 13.688546,0.03125 20.53125,0.03125 z" style="fill:#ffffff;fill-opacity:0.7520436;stroke:#000000;stroke-width:3;stroke-dasharray:none;stroke-opacity:1" />
  <path d="M 38.730393,69.9375 H 61.269607" style="fill:none;stroke:#000000;stroke-width:3;stroke-dasharray:none;stroke-opacity:1" />
  <path d="m 39.047335,76.3125 h 21.90533" style="fill:none;stroke:#000000;stroke-width:3;stroke-dasharray:none;stroke-opacity:1" />
  <path d="m 41.480393,80.9375 3.420495,3.8125 h 9.542894 L 58.5,80.9375 Z" style="fill:#000000;fill-opacity:1;stroke:none" />
</svg>
