<?xml version="1.0" encoding="UTF-8"?>
<svg xmlns="http://www.w3.org/2000/svg" width="100" height="100" viewBox="0 0 99.999998 100">
  <defs>
    <clipPath clipPathUnits="userSpaceOnUse" id="clipPath54">
      <path style="display:none;fill:#ffffff;fill-opacity:1" d="m 25.3,972.74436 v -9.60266 h 17.4 v 9.60266 z" id="path54" />
      <path id="lpe_path-effect54" style="fill:#ffffff;fill-opacity:1" class="powerclip" d="m 13.288869,947.3622 h 41.422263 v 81.9776 H 13.288869 Z M 25.3,972.74436 H 42.7 V 963.1417 H 25.3 Z" />
    </clipPath>
    <clipPath clipPathUnits="userSpaceOnUse" id="clipPath57">
    </clipPath>
    <clipPath clipPathUnits="userSpaceOnUse" id="clipPath68">
      <path id="path68" style="display:none;fill:#ffffff;fill-opacity:1;stroke-width:0.875044" d="m 31.185,961.55297 -0.02352,0.99872 h 5.831533 v -0.99872 z m 6.789739,3.38672 1.689106,9.13906 1.941884,2.57581 -1.698903,-9.19571 z m -8.055589,0.0134 -1.759649,2.26873 -1.802759,9.7532 1.785123,-2.40587 z m 15.215677,9.57879 1.981074,10.45529 2.847184,3.5179 -1.736135,-9.16889 z m -22.51881,0.76469 -3.113679,4.92653 -1.930127,10.18548 2.210339,-0.15501 z" />
      <path id="lpe_path-effect68" style="display:inline;fill:#ffffff;fill-opacity:1;stroke-width:0.875044" class="powerclip" d="M -4.5976562,954.4668 H 68.521484 v 61.1973 H -4.5976562 Z m 35.7826562,7.08617 -0.02352,0.99872 h 5.831533 v -0.99872 z m 6.789739,3.38672 1.689106,9.13906 1.941884,2.57581 -1.698903,-9.19571 z m -8.055589,0.0134 -1.759649,2.26873 -1.802759,9.7532 1.785123,-2.40587 z m 15.215677,9.57879 1.981074,10.45529 2.847184,3.5179 -1.736135,-9.16889 z m -22.51881,0.76469 -3.113679,4.92653 -1.930127,10.18548 2.210339,-0.15501 z" />
    </clipPath>
  </defs>
  <path id="m2" d="m 54.683885,1015.3279 15.51161,-22.61166 27.644456,47.24236" style="fill:none;fill-rule:evenodd;stroke:#000000;stroke-width:4;stroke-linecap:butt;stroke-linejoin:miter;stroke-miterlimit:4;stroke-dasharray:none;stroke-opacity:1" transform="translate(0,-952.3622)" />
  <path style="display:inline;fill:#000000;fill-opacity:1" d="m 22.6,975.68593 -2.999208,-2.94157 h 2.799472 v -9.60266 h -2.799472 l 13.473813,-10.7795 h 1.720496 l 13.784107,10.7795 h -2.979472 v 9.60266 h 2.979472 L 45.4,975.68593 h -2.7 l 7.011132,48.65387 H 45.690247 L 38.852389,975.68593 H 29.274107 L 22.43625,1024.3398 H 18.288869 L 25.3,975.68593 Z" id="path11" clip-path="url(#clipPath54)" transform="translate(0,-952.3622)" />
  <path style="fill:#000000;fill-opacity:1" d="m 24.755925,1017.3412 -0.557095,3.9639 17.40117,-15.5429 -0.7,-5.1 -10.737477,-10.4035 -0.795495,1.5026 11.182972,11.2509 z" id="xr" transform="translate(0,-952.3622)" />
  <path style="display:inline;fill:#000000;fill-opacity:1" d="m 43.24408,1017.3412 0.55709,3.9639 -17.40117,-15.5429 0.7,-5.1 10.870059,-10.514 0.795495,1.5026 L 27.45,1003.0122 Z" id="xl" transform="translate(0,-952.3622)" />
  <path style="baseline-shift:baseline;display:inline;overflow:visible;opacity:1;vector-effect:none;fill-rule:evenodd;stroke:none;stroke-width:3.50018;stroke-linejoin:miter;stroke-miterlimit:4;stroke-dasharray:none;stroke-opacity:1;enable-background:accumulate;stop-color:#000000;stop-opacity:1" d="m 33.865234,959.4668 -33.46289025,49.2305 2.89453125,1.9668 30.634766,-45.0684 26.738281,37.5508 2.851562,-2.0313 z" id="m1" transform="translate(0,-952.3622) matrix(0.9967362,0,0,1.3102673,0.16287538,-284.205)" clip-path="url(#clipPath68)" />
</svg>
