<?xml version="1.0" encoding="UTF-8"?>
<svg xmlns="http://www.w3.org/2000/svg" width="100" height="100" viewBox="0 0 99.999998 100">
  <defs>
    <clipPath clipPathUnits="userSpaceOnUse" id="clipPath17">
      <path style="display:none;fill:#ffffff;fill-opacity:1;stroke:none;stroke-width:1.22506;stroke-linejoin:miter;stroke-miterlimit:4;stroke-dasharray:none;stroke-opacity:1" d="m 72.645419,971.15256 c -0.290584,0.25341 -1.140356,1.17714 1.151314,2.63253 2.29167,1.45539 3.331346,0.20718 3.626343,-0.0445 l 10.012056,-8.70786 c -2.12663,-0.65704 -3.55163,-1.63676 -4.68114,-2.69555 z" id="path17" />
      <path id="lpe_path-effect17" style="display:block;fill:#ffffff;fill-opacity:1;stroke:none;stroke-width:1.22506;stroke-linejoin:miter;stroke-miterlimit:4;stroke-dasharray:none;stroke-opacity:1" class="powerclip" d="m 49.033009,951.16881 h 51.663321 v 43.86863 H 49.033009 Z m 23.61241,19.98375 c -0.290584,0.25341 -1.140356,1.17714 1.151314,2.63253 2.29167,1.45539 3.331346,0.20718 3.626343,-0.0445 l 10.012056,-8.70786 c -2.12663,-0.65704 -3.55163,-1.63676 -4.68114,-2.69555 z" />
    </clipPath>
  </defs>
  <g id="layer6">
    <path id="path3334" d="M 2.0058391,86.38506 33.950543,24.606599 62.05574,76.492411" style="fill:none;fill-rule:evenodd;stroke:#000000;stroke-width:4;stroke-linecap:butt;stroke-linejoin:miter;stroke-miterlimit:4;stroke-dasharray:none;stroke-opacity:1" />
    <path id="path3336" d="M 80.877977,58.637516 97.839951,87.596402" style="fill:none;fill-rule:evenodd;stroke:#000000;stroke-width:4;stroke-linecap:butt;stroke-linejoin:miter;stroke-miterlimit:4;stroke-dasharray:none;stroke-opacity:1" />
    <path style="fill:#000000;fill-opacity:1;stroke:none;stroke-width:2;stroke-linejoin:miter;stroke-miterlimit:4;stroke-dasharray:none;stroke-opacity:1" d="m 96.151911,23.894128 c 0,0 -0.856301,-3.168502 -3.982795,-5.591042 -3.126494,-2.42254 -6.391554,-2.723679 -6.391554,-2.723679 1.287249,-0.84524 4.285587,-1.883457 8.083348,1.196589 3.797762,3.080045 2.485485,5.785498 2.291001,7.118132 z" id="path3" />
    <path style="fill:#000000;fill-opacity:1;stroke:#000000;stroke-width:3.2;stroke-linejoin:miter;stroke-miterlimit:4;stroke-dasharray:none;stroke-opacity:1" d="m 56.556262,59.487251 -1.577435,2.347868" id="path4" />
    <path style="fill:none;fill-opacity:1;stroke:#000000;stroke-width:1.4;stroke-linejoin:miter;stroke-miterlimit:4;stroke-dasharray:none;stroke-opacity:1" d="m 56.199999,46.403865 c 0,0 4.659757,2.185735 12.350001,2.154485 7.690243,-0.03131 12.349999,-2.154485 12.349999,-2.154485" id="path6" />
    <path style="fill:none;fill-opacity:1;stroke:#000000;stroke-width:1.4;stroke-linejoin:miter;stroke-miterlimit:4;stroke-dasharray:none;stroke-opacity:1" d="m 56.199999,44.061579 c 0,0 5.872792,1.85615 12.350001,1.85615 6.477208,0 12.349999,-1.85615 12.349999,-1.85615" id="path7" />
    <rect style="fill:#000000;fill-opacity:1;stroke:none;stroke-width:1.4;stroke-linejoin:miter;stroke-miterlimit:4;stroke-dasharray:none;stroke-opacity:1" id="rect10" width="5.375082" height="10.062524" x="65.862465" y="52.225201" ry="0" />
    <path style="display:inline;fill:none;fill-opacity:1;stroke:#000000;stroke-width:1.6;stroke-dasharray:none;stroke-opacity:1" d="m 56.2,59.897135 c 0,0 4.854647,2.949201 12.35,2.949201 7.495353,0 12.31133,-2.949201 12.31133,-2.949201" id="path5" />
    <path id="Obs" clip-path="url(#clipPath17)" style="display:inline;fill:#000000;fill-opacity:1;stroke:none;stroke-width:1.75009;stroke-linejoin:miter;stroke-miterlimit:4;stroke-dasharray:none;stroke-opacity:1" d="m 85.238372,956.16881 -4.116952,3.76981 0.77793,1.48169 -7.704835,6.61989 c -1.93155,-0.41737 -3.877767,-0.5888 -5.582674,-0.5888 -2.742315,0 -5.999918,0.24858 -8.851154,1.22977 -1.425618,0.49059 -2.777009,1.16717 -3.870053,2.24638 -1.093044,1.07921 -1.857625,2.66148 -1.857625,4.38246 v 14.72743 h 4.375609 v -14.72743 c 0,-0.5777 0.136112,-0.85346 0.556504,-1.26853 0.420391,-0.41508 1.194002,-0.87136 2.218177,-1.22381 2.048348,-0.70489 4.988315,-0.99127 7.428542,-0.99127 0.568218,0 1.188268,0.028 1.832152,0.085 0.09311,0.5638 0.564761,1.43728 2.12608,2.625 2.677435,2.03676 5.621814,1.16657 6.221477,0.95698 0.01612,0.0987 0.02351,0.20154 0.02351,0.31453 v 8.96614 4.81176 h 4.37365 v -4.81176 -8.96614 c 0,-1.20877 -0.385953,-2.33549 -0.989558,-3.27939 l 7.818487,-6.93143 1.851747,0.18931 3.826943,-3.16014 c 0,0 -4.009888,-0.0401 -6.995488,-1.91248 -2.9856,-1.87235 -3.462473,-4.54494 -3.462473,-4.54494 z" transform="matrix(0.9967362,0,0,1.3102673,0.16287538,-1236.5672)" />
  </g>
</svg>
